Coordinates
version=1
nRows=8
nColumns=40
inDegrees=yes

Units are S.I. units (second, meters, Newtons, ...)
Angles are in degrees.

endheader
time	pelvis_tilt	pelvis_list	pelvis_rotation	pelvis_tx	pelvis_ty	pelvis_tz	hip_flexion_r	hip_adduction_r	hip_rotation_r	knee_angle_r	knee_angle_r_beta	ankle_angle_r	subtalar_angle_r	mtp_angle_r	hip_flexion_l	hip_adduction_l	hip_rotation_l	knee_angle_l	knee_angle_l_beta	ankle_angle_l	subtalar_angle_l	mtp_angle_l	lumbar_extension	lumbar_bending	lumbar_rotation	arm_flex_r	arm_add_r	arm_rot_r	elbow_flex_r	pro_sup_r	wrist_flex_r	wrist_dev_r	arm_flex_l	arm_add_l	arm_rot_l	elbow_flex_l	pro_sup_l	wrist_flex_l	wrist_dev_l
      2.33000000	     -2.34262223	     -2.76282883	      5.22178008	      0.29049586	      0.88597938	     -1.42795748	     18.15685735	      2.97323661	    -14.71755180	    -25.35996167	     -0.44261483	      6.83883524	     -5.68913538	      2.60377857	     12.96723974	      7.95264356	      2.40590325	    -64.34960328	     -1.12311245	    -12.19003839	     16.63299065	      0.99065324	     -1.58802617	      1.40991102	     -8.40382886	     -2.43263562	     -6.50826856	    -13.28915522	     23.99182624	     89.95437384	      0.00000000	      0.00000000	      1.47334289	     10.15990211	     18.50320939	     37.33508597	     89.95437384	      0.00000000	      0.00000000
      2.34000000	     -2.73359124	     -2.72238315	      4.99011786	      0.29692964	      0.88577831	     -1.42703916	     18.18795284	      3.15536111	    -14.10965442	    -25.48971753	     -0.44487950	      7.41770736	     -5.94475232	      3.69838248	     14.82022859	      7.76527904	      2.42371824	    -66.21809119	     -1.15572372	     -8.71881660	     16.85265666	     18.05123376	     -1.26757773	      1.35368191	     -8.15329205	     -2.08517721	     -6.67538652	    -12.91514592	     24.10805074	     89.95437384	      0.00000000	      0.00000000	      1.06229556	      9.89907996	     18.88169347	     36.88168167	     89.95437384	      0.00000000	      0.00000000
      2.35000000	     -2.61309020	     -2.56750171	      4.79474035	      0.30379688	      0.88651170	     -1.42609321	     17.44986655	      3.22467089	    -13.74347771	    -25.29367920	     -0.44145798	      7.87296704	     -5.87061312	      3.59014788	     15.80704216	      7.62539219	      2.52169366	    -67.25858800	     -1.17388381	     -7.72233915	     17.43002021	     17.85109128	     -1.51721913	      1.19359661	     -7.86575749	     -1.65446825	     -6.75419611	    -12.81982458	     24.13960608	     89.95437384	      0.00000000	      0.00000000	      0.72809362	      9.75668969	     18.97651987	     36.38498747	     89.95437384	      0.00000000	      0.00000000
      2.36000000	     -2.58674167	     -2.42878503	      4.57477297	      0.31054440	      0.88704135	     -1.42514368	     16.87273436	      3.30083710	    -13.27508367	    -25.19221291	     -0.43968706	      8.30082853	     -5.83320147	      3.48362421	     16.89800302	      7.49319026	      2.63562435	    -68.19923910	     -1.19030127	     -6.25036847	     17.81353197	     17.59842772	     -1.67216728	      1.05025254	     -7.54958028	     -1.29035091	     -6.83654628	    -12.71233564	     24.32533632	     89.95437384	      0.00000000	      0.00000000	      0.35820437	      9.59801765	     19.08893282	     35.94305324	     89.95437384	      0.00000000	      0.00000000
      2.37000000	     -2.59909391	     -2.22270681	      4.24888932	      0.31740973	      0.88757427	     -1.42425615	     16.30832841	      3.27426780	    -12.91194323	    -25.05833140	     -0.43735039	      8.63081488	     -5.77706122	      3.38194497	     17.92647353	      7.28927880	      2.88773335	    -68.84473423	     -1.20156728	     -4.85864632	     17.83025794	     17.32912223	     -1.74408826	      0.83528055	     -7.17810898	     -0.94068407	     -6.93317995	    -12.57161506	     24.47912547	     89.95437384	      0.00000000	      0.00000000	     -0.04456087	      9.43040201	     19.22497333	     35.44950299	     89.95437384	      0.00000000	      0.00000000
      2.38000000	     -2.60721860	     -2.02086146	      3.97463265	      0.32405250	      0.88808247	     -1.42334358	     15.74905104	      3.24113292	    -12.58077777	    -24.93768629	     -0.43524473	      8.97971579	     -5.70105347	      3.28062436	     18.98032391	      7.07959489	      3.07934958	    -69.37032300	     -1.21074054	     -3.23462268	     17.84790231	     17.04532163	     -1.85324795	      0.61079469	     -6.84214162	     -0.60328402	     -6.98651561	    -12.53037856	     24.76666911	     89.95437384	      0.00000000	      0.00000000	     -0.40664350	      9.27700792	     19.36728340	     34.95423702	     89.95437384	      0.00000000	      0.00000000
      2.39000000	     -2.62413922	     -1.82246069	      3.70274063	      0.33066226	      0.88854861	     -1.42257382	     15.17158062	      3.18202168	    -12.30582439	    -24.74492515	     -0.43188042	      9.29332886	     -5.56657811	      3.17719766	     20.02263221	      6.85644755	      3.28827365	    -69.67979496	     -1.21614184	     -1.64084397	     17.79251618	     16.75370084	     -1.94240528	      0.40252760	     -6.50767083	     -0.26956899	     -7.07329003	    -12.49386405	     25.03830979	     89.95437384	      0.00000000	      0.00000000	     -0.75237796	      9.14747322	     19.43266326	     34.43050704	     89.95437384	      0.00000000	      0.00000000
      2.40000000	     -2.63334964	     -1.62202329	      3.44288004	      0.33728630	      0.88900643	     -1.42179637	     14.56924058	      3.09545830	    -12.25491358	    -24.50112651	     -0.42762533	      9.63080808	     -5.44814410	      3.08011874	     21.05572639	      6.65499568	      3.51991386	    -69.80666791	     -1.21835619	     -0.30708153	     17.73068206	     16.46218307	     -2.02324298	      0.17526688	     -6.20867845	      0.03902966	     -7.11001868	    -12.49238259	     25.33908878	     89.95437384	      0.00000000	      0.00000000	     -1.12776712	      9.03358918	     19.46823326	     33.95151994	     89.95437384	      0.00000000	      0.00000000
